<svg xmlns="http://www.w3.org/2000/svg" viewBox="0 0 130.36 130.36"><defs><style>.cls-1{fill:#fff;}</style></defs><g id="Capa_2" data-name="Capa 2"><g id="OBJECTS"><path class="cls-1" d="M126.31,2a2,2,0,1,1,2,2A2,2,0,0,1,126.31,2Z"/><path class="cls-1" d="M117.29,2a2,2,0,1,1,2,2A2,2,0,0,1,117.29,2Z"/><path class="cls-1" d="M108.26,2a2,2,0,1,1,2,2A2,2,0,0,1,108.26,2Z"/><circle class="cls-1" cx="101.27" cy="2.02" r="2.02"/><path class="cls-1" d="M90.22,2a2,2,0,1,1,2,2A2,2,0,0,1,90.22,2Z"/><path class="cls-1" d="M81.2,2a2,2,0,1,1,2,2A2,2,0,0,1,81.2,2Z"/><path class="cls-1" d="M72.18,2a2,2,0,1,1,2,2A2,2,0,0,1,72.18,2Z"/><circle class="cls-1" cx="65.18" cy="2.02" r="2.02" transform="translate(17.66 46.68) rotate(-45)"/><path class="cls-1" d="M54.13,2a2,2,0,1,1,2,2A2,2,0,0,1,54.13,2Z"/><circle class="cls-1" cx="47.13" cy="2.02" r="2.02" transform="translate(12.37 33.92) rotate(-45)"/><circle class="cls-1" cx="38.11" cy="2.02" r="2.02" transform="translate(9.73 27.54) rotate(-45)"/><circle class="cls-1" cx="29.09" cy="2.02" r="2.02" transform="translate(7.09 21.16) rotate(-45)"/><circle class="cls-1" cx="20.07" cy="2.02" r="2.02" transform="translate(4.45 14.78) rotate(-45)"/><path class="cls-1" d="M9,2a2,2,0,1,1,2,2A2,2,0,0,1,9,2Z"/><path class="cls-1" d="M0,2a2,2,0,1,1,2,2A2,2,0,0,1,0,2Z"/><circle class="cls-1" cx="128.33" cy="11.05" r="2.02" transform="translate(29.78 93.98) rotate(-45)"/><path class="cls-1" d="M117.29,11.05a2,2,0,1,1,2,2A2,2,0,0,1,117.29,11.05Z"/><path class="cls-1" d="M108.26,11.05a2,2,0,1,1,2,2A2,2,0,0,1,108.26,11.05Z"/><path class="cls-1" d="M99.24,11.05a2,2,0,1,1,2,2A2,2,0,0,1,99.24,11.05Z"/><path class="cls-1" d="M90.22,11.05a2,2,0,1,1,2,2A2,2,0,0,1,90.22,11.05Z"/><path class="cls-1" d="M81.2,11.05a2,2,0,1,1,2,2A2,2,0,0,1,81.2,11.05Z"/><circle class="cls-1" cx="74.2" cy="11.05" r="2.02" transform="translate(13.92 55.7) rotate(-45)"/><path class="cls-1" d="M63.15,11.05a2,2,0,1,1,2,2A2,2,0,0,1,63.15,11.05Z"/><circle class="cls-1" cx="56.16" cy="11.05" r="2.02"/><circle class="cls-1" cx="47.13" cy="11.05" r="2.02" transform="translate(5.99 36.56) rotate(-45)"/><circle class="cls-1" cx="38.11" cy="11.05" r="2.02" transform="translate(3.35 30.18) rotate(-45)"/><circle class="cls-1" cx="29.09" cy="11.05" r="2.02" transform="translate(0.71 23.81) rotate(-45)"/><circle class="cls-1" cx="20.07" cy="11.05" r="2.02" transform="translate(-1.93 17.43) rotate(-45)"/><path class="cls-1" d="M9,11.05a2,2,0,1,1,2,2A2,2,0,0,1,9,11.05Z"/><path class="cls-1" d="M0,11.05a2,2,0,1,1,2,2A2,2,0,0,1,0,11.05Z"/><path class="cls-1" d="M126.31,20.07a2,2,0,1,1,2,2A2,2,0,0,1,126.31,20.07Z"/><circle class="cls-1" cx="119.31" cy="20.07" r="2.02"/><path class="cls-1" d="M108.26,20.07a2,2,0,1,1,2,2A2,2,0,0,1,108.26,20.07Z"/><path class="cls-1" d="M99.24,20.07a2,2,0,1,1,2,2A2,2,0,0,1,99.24,20.07Z"/><path class="cls-1" d="M90.22,20.07a2,2,0,1,1,2,2A2,2,0,0,1,90.22,20.07Z"/><circle class="cls-1" cx="83.22" cy="20.07" r="2.02"/><path class="cls-1" d="M72.18,20.07a2,2,0,1,1,2,2A2,2,0,0,1,72.18,20.07Z"/><circle class="cls-1" cx="65.18" cy="20.07" r="2.02"/><circle class="cls-1" cx="56.16" cy="20.07" r="2.02" transform="translate(2.26 45.59) rotate(-45)"/><circle class="cls-1" cx="47.13" cy="20.07" r="2.02"/><circle class="cls-1" cx="38.11" cy="20.07" r="2.02"/><circle class="cls-1" cx="29.09" cy="20.07" r="2.02" transform="translate(-5.67 26.45) rotate(-45)"/><path class="cls-1" d="M18,20.07a2,2,0,1,1,2,2A2,2,0,0,1,18,20.07Z"/><circle class="cls-1" cx="11.05" cy="20.07" r="2.02"/><circle class="cls-1" cx="2.02" cy="20.07" r="2.02"/><circle class="cls-1" cx="128.33" cy="29.09" r="2.02" transform="translate(17.02 99.27) rotate(-45)"/><path class="cls-1" d="M117.29,29.09a2,2,0,1,1,2,2A2,2,0,0,1,117.29,29.09Z"/><path class="cls-1" d="M108.26,29.09a2,2,0,1,1,2,2A2,2,0,0,1,108.26,29.09Z"/><path class="cls-1" d="M99.24,29.09a2,2,0,1,1,2,2A2,2,0,0,1,99.24,29.09Z"/><path class="cls-1" d="M90.22,29.09a2,2,0,1,1,2,2A2,2,0,0,1,90.22,29.09Z"/><path class="cls-1" d="M81.2,29.09a2,2,0,1,1,2,2A2,2,0,0,1,81.2,29.09Z"/><circle class="cls-1" cx="74.2" cy="29.09" r="2.02" transform="translate(1.16 60.99) rotate(-45)"/><path class="cls-1" d="M63.15,29.09a2,2,0,1,1,2,2A2,2,0,0,1,63.15,29.09Z"/><circle class="cls-1" cx="56.16" cy="29.09" r="2.02"/><path class="cls-1" d="M45.11,29.09a2,2,0,1,1,2,2A2,2,0,0,1,45.11,29.09Z"/><circle class="cls-1" cx="38.11" cy="29.09" r="2.02"/><path class="cls-1" d="M27.07,29.09a2,2,0,1,1,2,2A2,2,0,0,1,27.07,29.09Z"/><circle class="cls-1" cx="20.07" cy="29.09" r="2.02" transform="translate(-14.69 22.71) rotate(-45)"/><circle class="cls-1" cx="11.05" cy="29.09" r="2.02"/><path class="cls-1" d="M0,29.09a2,2,0,1,1,2,2A2,2,0,0,1,0,29.09Z"/><circle class="cls-1" cx="128.33" cy="38.11" r="2.02" transform="translate(10.64 101.91) rotate(-45)"/><path class="cls-1" d="M117.29,38.11a2,2,0,1,1,2,2A2,2,0,0,1,117.29,38.11Z"/><path class="cls-1" d="M108.26,38.11a2,2,0,1,1,2,2A2,2,0,0,1,108.26,38.11Z"/><circle class="cls-1" cx="101.27" cy="38.11" r="2.02"/><path class="cls-1" d="M90.22,38.11a2,2,0,1,1,2,2A2,2,0,0,1,90.22,38.11Z"/><path class="cls-1" d="M81.2,38.11a2,2,0,1,1,2,2A2,2,0,0,1,81.2,38.11Z"/><circle class="cls-1" cx="74.2" cy="38.11" r="2.02" transform="translate(-5.22 63.63) rotate(-45)"/><circle class="cls-1" cx="65.18" cy="38.11" r="2.02" transform="translate(-7.86 57.25) rotate(-45)"/><path class="cls-1" d="M54.13,38.11a2,2,0,1,1,2,2A2,2,0,0,1,54.13,38.11Z"/><path class="cls-1" d="M45.11,38.11a2,2,0,1,1,2,2A2,2,0,0,1,45.11,38.11Z"/><path class="cls-1" d="M36.09,38.11a2,2,0,1,1,2,2A2,2,0,0,1,36.09,38.11Z"/><path class="cls-1" d="M27.07,38.11a2,2,0,1,1,2,2A2,2,0,0,1,27.07,38.11Z"/><circle class="cls-1" cx="20.07" cy="38.11" r="2.02" transform="translate(-21.07 25.35) rotate(-45)"/><path class="cls-1" d="M9,38.11a2,2,0,1,1,2,2A2,2,0,0,1,9,38.11Z"/><path class="cls-1" d="M0,38.11a2,2,0,1,1,2,2A2,2,0,0,1,0,38.11Z"/><path class="cls-1" d="M126.31,47.13a2,2,0,1,1,2,2A2,2,0,0,1,126.31,47.13Z"/><path class="cls-1" d="M117.29,47.13a2,2,0,1,1,2,2A2,2,0,0,1,117.29,47.13Z"/><path class="cls-1" d="M108.26,47.13a2,2,0,1,1,2,2A2,2,0,0,1,108.26,47.13Z"/><path class="cls-1" d="M99.24,47.13a2,2,0,1,1,2,2A2,2,0,0,1,99.24,47.13Z"/><circle class="cls-1" cx="92.24" cy="47.13" r="2.02" transform="translate(-6.31 79.03) rotate(-45)"/><path class="cls-1" d="M81.2,47.13a2,2,0,1,1,2,2A2,2,0,0,1,81.2,47.13Z"/><path class="cls-1" d="M72.18,47.13a2,2,0,1,1,2,2A2,2,0,0,1,72.18,47.13Z"/><circle class="cls-1" cx="65.18" cy="47.13" r="2.02"/><circle class="cls-1" cx="56.16" cy="47.13" r="2.02"/><path class="cls-1" d="M45.11,47.13a2,2,0,1,1,2,2A2,2,0,0,1,45.11,47.13Z"/><path class="cls-1" d="M36.09,47.13a2,2,0,1,1,2,2A2,2,0,0,1,36.09,47.13Z"/><path class="cls-1" d="M27.07,47.13a2,2,0,1,1,2,2A2,2,0,0,1,27.07,47.13Z"/><path class="cls-1" d="M18,47.13a2,2,0,1,1,2,2A2,2,0,0,1,18,47.13Z"/><path class="cls-1" d="M9,47.13a2,2,0,1,1,2,2A2,2,0,0,1,9,47.13Z"/><circle class="cls-1" cx="2.02" cy="47.13" r="2.02" transform="translate(-32.74 15.24) rotate(-45)"/><path class="cls-1" d="M126.31,56.16a2,2,0,1,1,2,2A2,2,0,0,1,126.31,56.16Z"/><path class="cls-1" d="M117.29,56.16a2,2,0,1,1,2,2A2,2,0,0,1,117.29,56.16Z"/><path class="cls-1" d="M108.26,56.16a2,2,0,1,1,2,2A2,2,0,0,1,108.26,56.16Z"/><circle class="cls-1" cx="101.27" cy="56.16" r="2.02"/><path class="cls-1" d="M90.22,56.16a2,2,0,1,1,2,2A2,2,0,0,1,90.22,56.16Z"/><circle class="cls-1" cx="83.22" cy="56.16" r="2.02" transform="translate(-15.33 75.3) rotate(-45)"/><path class="cls-1" d="M72.18,56.16a2,2,0,1,1,2,2A2,2,0,0,1,72.18,56.16Z"/><path class="cls-1" d="M63.15,56.16a2,2,0,1,1,2,2A2,2,0,0,1,63.15,56.16Z"/><path class="cls-1" d="M54.13,56.16a2,2,0,1,1,2,2A2,2,0,0,1,54.13,56.16Z"/><path class="cls-1" d="M45.11,56.16a2,2,0,1,1,2,2A2,2,0,0,1,45.11,56.16Z"/><path class="cls-1" d="M36.09,56.16a2,2,0,1,1,2,2A2,2,0,0,1,36.09,56.16Z"/><path class="cls-1" d="M27.07,56.16a2,2,0,1,1,2,2A2,2,0,0,1,27.07,56.16Z"/><path class="cls-1" d="M18,56.16a2,2,0,1,1,2,2A2,2,0,0,1,18,56.16Z"/><circle class="cls-1" cx="11.05" cy="56.16" r="2.02"/><path class="cls-1" d="M0,56.16a2,2,0,1,1,2,2A2,2,0,0,1,0,56.16Z"/><path class="cls-1" d="M126.31,65.18a2,2,0,1,1,2,2A2,2,0,0,1,126.31,65.18Z"/><path class="cls-1" d="M117.29,65.18a2,2,0,1,1,2,2A2,2,0,0,1,117.29,65.18Z"/><path class="cls-1" d="M108.26,65.18a2,2,0,1,1,2,2A2,2,0,0,1,108.26,65.18Z"/><circle class="cls-1" cx="101.27" cy="65.18" r="2.02"/><circle class="cls-1" cx="92.24" cy="65.18" r="2.02"/><path class="cls-1" d="M81.2,65.18a2,2,0,1,1,2,2A2,2,0,0,1,81.2,65.18Z"/><circle class="cls-1" cx="74.2" cy="65.18" r="2.02"/><path class="cls-1" d="M63.15,65.18a2,2,0,1,1,2,2A2,2,0,0,1,63.15,65.18Z"/><path class="cls-1" d="M54.13,65.18a2,2,0,1,1,2,2A2,2,0,0,1,54.13,65.18Z"/><circle class="cls-1" cx="47.13" cy="65.18" r="2.02"/><path class="cls-1" d="M36.09,65.18a2,2,0,1,1,2,2A2,2,0,0,1,36.09,65.18Z"/><path class="cls-1" d="M27.07,65.18a2,2,0,1,1,2,2A2,2,0,0,1,27.07,65.18Z"/><circle class="cls-1" cx="20.07" cy="65.18" r="2.02"/><path class="cls-1" d="M9,65.18a2,2,0,1,1,2,2A2,2,0,0,1,9,65.18Z"/><path class="cls-1" d="M0,65.18a2,2,0,1,1,2,2A2,2,0,0,1,0,65.18Z"/><path class="cls-1" d="M126.31,74.2a2,2,0,1,1,2,2A2,2,0,0,1,126.31,74.2Z"/><circle class="cls-1" cx="119.31" cy="74.2" r="2.02" transform="translate(-17.52 106.1) rotate(-45)"/><circle class="cls-1" cx="110.29" cy="74.2" r="2.02" transform="translate(-20.16 99.72) rotate(-45)"/><path class="cls-1" d="M99.24,74.2a2,2,0,1,1,2,2A2,2,0,0,1,99.24,74.2Z"/><circle class="cls-1" cx="92.24" cy="74.2" r="2.02" transform="translate(-25.45 86.96) rotate(-45)"/><circle class="cls-1" cx="83.22" cy="74.2" r="2.02" transform="translate(-28.09 80.58) rotate(-45)"/><path class="cls-1" d="M72.18,74.2a2,2,0,1,1,2,2A2,2,0,0,1,72.18,74.2Z"/><path class="cls-1" d="M63.15,74.2a2,2,0,1,1,2,2A2,2,0,0,1,63.15,74.2Z"/><path class="cls-1" d="M54.13,74.2a2,2,0,1,1,2,2A2,2,0,0,1,54.13,74.2Z"/><path class="cls-1" d="M45.11,74.2a2,2,0,1,1,2,2A2,2,0,0,1,45.11,74.2Z"/><path class="cls-1" d="M36.09,74.2a2,2,0,1,1,2,2A2,2,0,0,1,36.09,74.2Z"/><circle class="cls-1" cx="29.09" cy="74.2" r="2.02" transform="translate(-43.95 42.3) rotate(-45)"/><path class="cls-1" d="M18,74.2a2,2,0,1,1,2,2A2,2,0,0,1,18,74.2Z"/><path class="cls-1" d="M9,74.2a2,2,0,1,1,2,2A2,2,0,0,1,9,74.2Z"/><path class="cls-1" d="M0,74.2a2,2,0,1,1,2,2A2,2,0,0,1,0,74.2Z"/><path class="cls-1" d="M126.31,83.22a2,2,0,1,1,2,2A2,2,0,0,1,126.31,83.22Z"/><circle class="cls-1" cx="119.31" cy="83.22" r="2.02" transform="translate(-23.9 108.74) rotate(-45)"/><circle class="cls-1" cx="110.29" cy="83.22" r="2.02" transform="translate(-26.54 102.36) rotate(-45)"/><circle class="cls-1" cx="101.27" cy="83.22" r="2.02"/><path class="cls-1" d="M90.22,83.22a2,2,0,1,1,2,2A2,2,0,0,1,90.22,83.22Z"/><path class="cls-1" d="M81.2,83.22a2,2,0,1,1,2,2A2,2,0,0,1,81.2,83.22Z"/><path class="cls-1" d="M72.18,83.22a2,2,0,1,1,2,2A2,2,0,0,1,72.18,83.22Z"/><path class="cls-1" d="M63.15,83.22a2,2,0,1,1,2,2A2,2,0,0,1,63.15,83.22Z"/><path class="cls-1" d="M54.13,83.22a2,2,0,1,1,2,2A2,2,0,0,1,54.13,83.22Z"/><path class="cls-1" d="M45.11,83.22a2,2,0,1,1,2,2A2,2,0,0,1,45.11,83.22Z"/><circle class="cls-1" cx="38.11" cy="83.22" r="2.02" transform="translate(-47.68 51.32) rotate(-45)"/><path class="cls-1" d="M27.07,83.22a2,2,0,1,1,2,2A2,2,0,0,1,27.07,83.22Z"/><path class="cls-1" d="M18,83.22a2,2,0,1,1,2,2A2,2,0,0,1,18,83.22Z"/><path class="cls-1" d="M9,83.22a2,2,0,1,1,2,2A2,2,0,0,1,9,83.22Z"/><path class="cls-1" d="M0,83.22a2,2,0,1,1,2,2A2,2,0,0,1,0,83.22Z"/><circle class="cls-1" cx="128.33" cy="92.24" r="2.02" transform="translate(-27.64 117.76) rotate(-45)"/><path class="cls-1" d="M117.29,92.24a2,2,0,1,1,2,2A2,2,0,0,1,117.29,92.24Z"/><circle class="cls-1" cx="110.29" cy="92.24" r="2.02"/><circle class="cls-1" cx="101.27" cy="92.24" r="2.02" transform="translate(-35.57 98.62) rotate(-45)"/><path class="cls-1" d="M90.22,92.24a2,2,0,1,1,2,2A2,2,0,0,1,90.22,92.24Z"/><path class="cls-1" d="M81.2,92.24a2,2,0,1,1,2,2A2,2,0,0,1,81.2,92.24Z"/><path class="cls-1" d="M72.18,92.24a2,2,0,1,1,2,2A2,2,0,0,1,72.18,92.24Z"/><path class="cls-1" d="M63.15,92.24a2,2,0,1,1,2,2A2,2,0,0,1,63.15,92.24Z"/><path class="cls-1" d="M54.13,92.24a2,2,0,1,1,2,2A2,2,0,0,1,54.13,92.24Z"/><circle class="cls-1" cx="47.13" cy="92.24" r="2.02"/><path class="cls-1" d="M36.09,92.24a2,2,0,1,1,2,2A2,2,0,0,1,36.09,92.24Z"/><path class="cls-1" d="M27.07,92.24a2,2,0,1,1,2,2A2,2,0,0,1,27.07,92.24Z"/><circle class="cls-1" cx="20.07" cy="92.24" r="2.02"/><path class="cls-1" d="M9,92.24a2,2,0,1,1,2,2A2,2,0,0,1,9,92.24Z"/><path class="cls-1" d="M0,92.24a2,2,0,1,1,2,2A2,2,0,0,1,0,92.24Z"/><path class="cls-1" d="M126.31,101.27a2,2,0,1,1,2,2A2,2,0,0,1,126.31,101.27Z"/><circle class="cls-1" cx="119.31" cy="101.27" r="2.02"/><path class="cls-1" d="M108.26,101.27a2,2,0,1,1,2,2A2,2,0,0,1,108.26,101.27Z"/><circle class="cls-1" cx="101.27" cy="101.27" r="2.02"/><path class="cls-1" d="M90.22,101.27a2,2,0,1,1,2,2A2,2,0,0,1,90.22,101.27Z"/><circle class="cls-1" cx="83.22" cy="101.27" r="2.02" transform="translate(-47.23 88.51) rotate(-45)"/><path class="cls-1" d="M72.18,101.27a2,2,0,1,1,2,2A2,2,0,0,1,72.18,101.27Z"/><path class="cls-1" d="M63.15,101.27a2,2,0,1,1,2,2A2,2,0,0,1,63.15,101.27Z"/><circle class="cls-1" cx="56.16" cy="101.27" r="2.02"/><path class="cls-1" d="M45.11,101.27a2,2,0,1,1,2,2A2,2,0,0,1,45.11,101.27Z"/><path class="cls-1" d="M36.09,101.27a2,2,0,1,1,2,2A2,2,0,0,1,36.09,101.27Z"/><path class="cls-1" d="M27.07,101.27a2,2,0,1,1,2,2A2,2,0,0,1,27.07,101.27Z"/><circle class="cls-1" cx="20.07" cy="101.27" r="2.02" transform="translate(-65.73 43.85) rotate(-45)"/><circle class="cls-1" cx="11.05" cy="101.27" r="2.02"/><path class="cls-1" d="M0,101.27a2,2,0,1,1,2,2A2,2,0,0,1,0,101.27Z"/><circle class="cls-1" cx="128.33" cy="110.29" r="2.02" transform="translate(-40.4 123.05) rotate(-45)"/><path class="cls-1" d="M117.29,110.29a2,2,0,1,1,2,2A2,2,0,0,1,117.29,110.29Z"/><circle class="cls-1" cx="110.29" cy="110.29" r="2.02"/><path class="cls-1" d="M99.24,110.29a2,2,0,1,1,2,2A2,2,0,0,1,99.24,110.29Z"/><circle class="cls-1" cx="92.24" cy="110.29" r="2.02" transform="translate(-50.97 97.53) rotate(-45)"/><path class="cls-1" d="M81.2,110.29a2,2,0,1,1,2,2A2,2,0,0,1,81.2,110.29Z"/><path class="cls-1" d="M72.18,110.29a2,2,0,1,1,2,2A2,2,0,0,1,72.18,110.29Z"/><path class="cls-1" d="M63.15,110.29a2,2,0,1,1,2,2A2,2,0,0,1,63.15,110.29Z"/><circle class="cls-1" cx="56.16" cy="110.29" r="2.02" transform="translate(-61.54 72.01) rotate(-45)"/><path class="cls-1" d="M45.11,110.29a2,2,0,1,1,2,2A2,2,0,0,1,45.11,110.29Z"/><path class="cls-1" d="M36.09,110.29a2,2,0,1,1,2,2A2,2,0,0,1,36.09,110.29Z"/><circle class="cls-1" cx="29.09" cy="110.29" r="2.02" transform="translate(-69.47 52.87) rotate(-45)"/><path class="cls-1" d="M18,110.29a2,2,0,1,1,2,2A2,2,0,0,1,18,110.29Z"/><circle class="cls-1" cx="11.05" cy="110.29" r="2.02" transform="translate(-74.75 40.11) rotate(-45)"/><circle class="cls-1" cx="2.02" cy="110.29" r="2.02"/><circle class="cls-1" cx="128.33" cy="119.31" r="2.02" transform="translate(-46.78 125.69) rotate(-45)"/><circle class="cls-1" cx="119.31" cy="119.31" r="2.02" transform="translate(-49.42 119.31) rotate(-45)"/><path class="cls-1" d="M108.26,119.31a2,2,0,1,1,2,2A2,2,0,0,1,108.26,119.31Z"/><circle class="cls-1" cx="101.27" cy="119.31" r="2.02"/><path class="cls-1" d="M90.22,119.31a2,2,0,1,1,2,2A2,2,0,0,1,90.22,119.31Z"/><path class="cls-1" d="M81.2,119.31a2,2,0,1,1,2,2A2,2,0,0,1,81.2,119.31Z"/><circle class="cls-1" cx="74.2" cy="119.31" r="2.02" transform="translate(-62.63 87.41) rotate(-45)"/><circle class="cls-1" cx="65.18" cy="119.31" r="2.02" transform="translate(-65.28 81.03) rotate(-45)"/><path class="cls-1" d="M54.13,119.31a2,2,0,1,1,2,2A2,2,0,0,1,54.13,119.31Z"/><circle class="cls-1" cx="47.13" cy="119.31" r="2.02" transform="translate(-70.56 68.27) rotate(-45)"/><circle class="cls-1" cx="38.11" cy="119.31" r="2.02" transform="translate(-73.2 61.89) rotate(-45)"/><path class="cls-1" d="M27.07,119.31a2,2,0,1,1,2,2A2,2,0,0,1,27.07,119.31Z"/><circle class="cls-1" cx="20.07" cy="119.31" r="2.02" transform="translate(-78.49 49.14) rotate(-45)"/><path class="cls-1" d="M9,119.31a2,2,0,1,1,2,2A2,2,0,0,1,9,119.31Z"/><path class="cls-1" d="M0,119.31a2,2,0,1,1,2,2A2,2,0,0,1,0,119.31Z"/><circle class="cls-1" cx="128.33" cy="128.33" r="2.02" transform="translate(-53.16 128.33) rotate(-45)"/><path class="cls-1" d="M117.29,128.33a2,2,0,1,1,2,2A2,2,0,0,1,117.29,128.33Z"/><circle class="cls-1" cx="110.29" cy="128.33" r="2.02" transform="translate(-58.44 115.57) rotate(-45)"/><path class="cls-1" d="M99.24,128.33a2,2,0,1,1,2,2A2,2,0,0,1,99.24,128.33Z"/><path class="cls-1" d="M90.22,128.33a2,2,0,1,1,2,2A2,2,0,0,1,90.22,128.33Z"/><path class="cls-1" d="M81.2,128.33a2,2,0,1,1,2,2A2,2,0,0,1,81.2,128.33Z"/><circle class="cls-1" cx="74.2" cy="128.33" r="2.02" transform="translate(-69.01 90.06) rotate(-45)"/><path class="cls-1" d="M63.15,128.33a2,2,0,1,1,2,2A2,2,0,0,1,63.15,128.33Z"/><circle class="cls-1" cx="56.16" cy="128.33" r="2.02"/><path class="cls-1" d="M45.11,128.33a2,2,0,1,1,2,2A2,2,0,0,1,45.11,128.33Z"/><path class="cls-1" d="M36.09,128.33a2,2,0,1,1,2,2A2,2,0,0,1,36.09,128.33Z"/><circle class="cls-1" cx="29.09" cy="128.33" r="2.02" transform="translate(-82.22 58.16) rotate(-45)"/><path class="cls-1" d="M18,128.33a2,2,0,1,1,2,2A2,2,0,0,1,18,128.33Z"/><path class="cls-1" d="M9,128.33a2,2,0,1,1,2,2A2,2,0,0,1,9,128.33Z"/><path class="cls-1" d="M0,128.33a2,2,0,1,1,2,2A2,2,0,0,1,0,128.33Z"/></g></g></svg>