<svg width="215" height="218" viewBox="0 0 215 218" fill="none" xmlns="http://www.w3.org/2000/svg">
<path fill-rule="evenodd" clip-rule="evenodd" d="M4 0C1.79086 0 0 1.79086 0 4V4.05225C0 6.26138 1.79086 8.05225 4 8.05225C5.12827 8.05225 6.14744 7.58511 6.87465 6.83369C7.6016 6.10942 8.05149 5.10725 8.05149 4C8.05149 1.79086 6.26063 0 4.05149 0H4ZM24.6485 0C22.4394 0 20.6485 1.79086 20.6485 4C20.6485 6.20914 22.4394 8 24.6485 8H24.7515C26.9606 8 28.7515 6.20914 28.7515 4C28.7515 1.79086 26.9606 0 24.7515 0H24.6485ZM45.3485 0C43.1394 0 41.3485 1.79086 41.3485 4C41.3485 6.20914 43.1394 8 45.3485 8H45.4515C47.6606 8 49.4515 6.20914 49.4515 4C49.4515 1.79086 47.6606 0 45.4515 0H45.3485ZM66.0485 0C63.8394 0 62.0485 1.79086 62.0485 4C62.0485 6.20914 63.8394 8 66.0485 8H66.1515C68.3606 8 70.1515 6.20914 70.1515 4C70.1515 1.79086 68.3606 0 66.1515 0H66.0485ZM86.7485 0C84.5394 0 82.7485 1.79086 82.7485 4C82.7485 6.20914 84.5394 8 86.7485 8H86.8515C89.0606 8 90.8515 6.20914 90.8515 4C90.8515 1.79086 89.0606 0 86.8515 0H86.7485ZM107.449 0C105.239 0 103.449 1.79086 103.449 4C103.449 6.20914 105.239 8 107.449 8H107.551C109.761 8 111.551 6.20914 111.551 4C111.551 1.79086 109.761 0 107.551 0H107.449ZM128.148 0C125.939 0 124.149 1.79086 124.149 4C124.149 6.20914 125.939 8 128.148 8H128.251C130.461 8 132.251 6.20914 132.251 4C132.251 1.79086 130.461 0 128.251 0H128.148ZM148.849 0C146.639 0 144.849 1.79086 144.849 4C144.849 6.20914 146.639 8 148.849 8H148.951C151.161 8 152.951 6.20914 152.951 4C152.951 1.79086 151.161 0 148.951 0H148.849ZM169.549 0C167.339 0 165.549 1.79086 165.549 4C165.549 6.20914 167.339 8 169.549 8H169.651C171.861 8 173.651 6.20914 173.651 4C173.651 1.79086 171.861 0 169.651 0H169.549ZM190.249 0C188.039 0 186.249 1.79086 186.249 4C186.249 6.20914 188.039 8 190.249 8H190.351C192.561 8 194.351 6.20914 194.351 4C194.351 1.79086 192.561 0 190.351 0H190.249ZM210.949 0C208.739 0 206.949 1.79086 206.949 4C206.949 6.20914 208.739 8 210.949 8H211C213.209 8 215 6.20914 215 4C215 1.79086 213.209 0 211 0H210.949ZM8 24.9478C8 22.7386 6.20914 20.9478 4 20.9478C1.79086 20.9478 0 22.7386 0 24.9478V25.0522C0 27.2614 1.79086 29.0522 4 29.0522C6.20914 29.0522 8 27.2614 8 25.0522V24.9478ZM8 45.9478C8 43.7386 6.20914 41.9478 4 41.9478C1.79086 41.9478 0 43.7386 0 45.9478V46.0522C0 48.2614 1.79086 50.0522 4 50.0522C6.20914 50.0522 8 48.2614 8 46.0522V45.9478ZM8 66.9478C8 64.7386 6.20914 62.9478 4 62.9478C1.79086 62.9478 0 64.7386 0 66.9478V67.0522C0 69.2614 1.79086 71.0522 4 71.0522C6.20914 71.0522 8 69.2614 8 67.0522V66.9478ZM8 87.9478C8 85.7386 6.20914 83.9478 4 83.9478C1.79086 83.9478 0 85.7386 0 87.9478V88.0522C0 90.2614 1.79086 92.0522 4 92.0522C6.20914 92.0522 8 90.2614 8 88.0522V87.9478ZM8 108.948C8 106.739 6.20914 104.948 4 104.948C1.79086 104.948 0 106.739 0 108.948V109.052C0 111.261 1.79086 113.052 4 113.052C6.20914 113.052 8 111.261 8 109.052V108.948ZM8 129.948C8 127.739 6.20914 125.948 4 125.948C1.79086 125.948 0 127.739 0 129.948V130.052C0 132.261 1.79086 134.052 4 134.052C6.20914 134.052 8 132.261 8 130.052V129.948ZM8 150.948C8 148.739 6.20914 146.948 4 146.948C1.79086 146.948 0 148.739 0 150.948V151.052C0 153.261 1.79086 155.052 4 155.052C6.20914 155.052 8 153.261 8 151.052V150.948ZM8 171.948C8 169.739 6.20914 167.948 4 167.948C1.79086 167.948 0 169.739 0 171.948V172.052C0 174.261 1.79086 176.052 4 176.052C6.20914 176.052 8 174.261 8 172.052V171.948ZM8 192.948C8 190.739 6.20914 188.948 4 188.948C1.79086 188.948 0 190.739 0 192.948V193.052C0 195.261 1.79086 197.052 4 197.052C6.20914 197.052 8 195.261 8 193.052V192.948ZM8 213.948C8 211.739 6.20914 209.948 4 209.948C1.79086 209.948 0 211.739 0 213.948V214C0 216.209 1.79086 218 4 218C6.20914 218 8 216.209 8 214V213.948ZM24 20.5C21.7909 20.5 20 22.2909 20 24.5V24.5524C20 26.7615 21.7909 28.5524 24 28.5524C25.1272 28.5524 26.1456 28.0861 26.8726 27.3359C27.6009 26.6114 28.0517 25.6084 28.0517 24.5C28.0517 22.2909 26.2608 20.5 24.0517 20.5H24ZM44.7261 20.5C42.517 20.5 40.7261 22.2909 40.7261 24.5C40.7261 26.7091 42.517 28.5 44.7261 28.5H44.8295C47.0386 28.5 48.8295 26.7091 48.8295 24.5C48.8295 22.2909 47.0386 20.5 44.8295 20.5H44.7261ZM65.5039 20.5C63.2947 20.5 61.5039 22.2909 61.5039 24.5C61.5039 26.7091 63.2947 28.5 65.5039 28.5H65.6072C67.8164 28.5 69.6072 26.7091 69.6072 24.5C69.6072 22.2909 67.8164 20.5 65.6072 20.5H65.5039ZM86.2816 20.5C84.0725 20.5 82.2816 22.2909 82.2816 24.5C82.2816 26.7091 84.0725 28.5 86.2816 28.5H86.385C88.5942 28.5 90.385 26.7091 90.385 24.5C90.385 22.2909 88.5942 20.5 86.385 20.5H86.2816ZM107.059 20.5C104.85 20.5 103.059 22.2909 103.059 24.5C103.059 26.7091 104.85 28.5 107.059 28.5H107.163C109.372 28.5 111.163 26.7091 111.163 24.5C111.163 22.2909 109.372 20.5 107.163 20.5H107.059ZM127.837 20.5C125.628 20.5 123.837 22.2909 123.837 24.5C123.837 26.7091 125.628 28.5 127.837 28.5H127.941C130.15 28.5 131.941 26.7091 131.941 24.5C131.941 22.2909 130.15 20.5 127.941 20.5H127.837ZM148.615 20.5C146.406 20.5 144.615 22.2909 144.615 24.5C144.615 26.7091 146.406 28.5 148.615 28.5H148.718C150.927 28.5 152.718 26.7091 152.718 24.5C152.718 22.2909 150.927 20.5 148.718 20.5H148.615ZM169.393 20.5C167.184 20.5 165.393 22.2909 165.393 24.5C165.393 26.7091 167.184 28.5 169.393 28.5H169.496C171.705 28.5 173.496 26.7091 173.496 24.5C173.496 22.2909 171.705 20.5 169.496 20.5H169.393ZM190.171 20.5C187.961 20.5 186.171 22.2909 186.171 24.5C186.171 26.7091 187.961 28.5 190.171 28.5H190.274C192.483 28.5 194.274 26.7091 194.274 24.5C194.274 22.2909 192.483 20.5 190.274 20.5H190.171ZM210.948 20.5C208.739 20.5 206.948 22.2909 206.948 24.5C206.948 26.7091 208.739 28.5 210.948 28.5H211C213.209 28.5 215 26.7091 215 24.5C215 22.2909 213.209 20.5 211 20.5H210.948ZM28 45.5032C28 43.294 26.2091 41.5032 24 41.5032C21.7909 41.5032 20 43.294 20 45.5032V45.6079C20 47.8171 21.7909 49.6079 24 49.6079C26.2091 49.6079 28 47.8171 28 45.6079V45.5032ZM28 66.5587C28 64.3496 26.2091 62.5587 24 62.5587C21.7909 62.5587 20 64.3496 20 66.5587V66.6635C20 68.8726 21.7909 70.6635 24 70.6635C26.2091 70.6635 28 68.8726 28 66.6635V66.5587ZM28 87.6143C28 85.4052 26.2091 83.6143 24 83.6143C21.7909 83.6143 20 85.4052 20 87.6143V87.719C20 89.9282 21.7909 91.719 24 91.719C26.2091 91.719 28 89.9282 28 87.719V87.6143ZM28 108.67C28 106.461 26.2091 104.67 24 104.67C21.7909 104.67 20 106.461 20 108.67V108.775C20 110.984 21.7909 112.775 24 112.775C26.2091 112.775 28 110.984 28 108.775V108.67ZM28 129.725C28 127.516 26.2091 125.725 24 125.725C21.7909 125.725 20 127.516 20 129.725V129.83C20 132.039 21.7909 133.83 24 133.83C26.2091 133.83 28 132.039 28 129.83V129.725ZM28 150.781C28 148.572 26.2091 146.781 24 146.781C21.7909 146.781 20 148.572 20 150.781V150.886C20 153.095 21.7909 154.886 24 154.886C26.2091 154.886 28 153.095 28 150.886V150.781ZM28 171.837C28 169.627 26.2091 167.837 24 167.837C21.7909 167.837 20 169.627 20 171.837V171.941C20 174.15 21.7909 175.941 24 175.941C26.2091 175.941 28 174.15 28 171.941V171.837ZM28 192.892C28 190.683 26.2091 188.892 24 188.892C21.7909 188.892 20 190.683 20 192.892V192.997C20 195.206 21.7909 196.997 24 196.997C26.2091 196.997 28 195.206 28 192.997V192.892ZM28 213.948C28 211.738 26.2091 209.948 24 209.948C21.7909 209.948 20 211.738 20 213.948V214C20 216.209 21.7909 218 24 218C26.2091 218 28 216.209 28 214V213.948Z" fill="#302E29"/>
</svg>
